<svg width="84" height="83" viewBox="0 0 84 83" fill="none" xmlns="http://www.w3.org/2000/svg">
<rect width="60" height="58" rx="12" fill="#A9E1F8"/>
<path d="M25.3125 28.75C23.2031 28.75 21.5625 27.1094 21.5625 25C21.5625 22.9492 23.2031 21.25 25.3125 21.25C27.3633 21.25 29.0625 22.9492 29.0625 25C29.0625 27.1094 27.3633 28.75 25.3125 28.75ZM40.3125 27.3438C41.0742 27.3438 41.7188 27.9883 41.7188 28.75C41.7188 29.5703 41.0742 30.1562 40.3125 30.1562H34.6875C33.8672 30.1562 33.2812 29.5703 33.2812 28.75C33.2812 27.9883 33.8672 27.3438 34.6875 27.3438H40.3125ZM27.1875 30.625C29.7656 30.625 31.875 32.7344 31.875 35.3125C31.875 35.8398 31.4062 36.25 30.9375 36.25H19.6875C19.1602 36.25 18.75 35.8398 18.75 35.3125C18.75 32.7344 20.8008 30.625 23.4375 30.625H27.1875ZM40.3125 22.6562C41.0742 22.6562 41.7188 23.3008 41.7188 24.0625C41.7188 24.8828 41.0742 25.4688 40.3125 25.4688H34.6875C33.8672 25.4688 33.2812 24.8828 33.2812 24.0625C33.2812 23.3008 33.8672 22.6562 34.6875 22.6562H40.3125ZM43.125 15.625C45.1758 15.625 46.875 17.3242 46.875 19.375V38.125C46.875 40.2344 45.1758 41.875 43.125 41.875H16.875C14.7656 41.875 13.125 40.2344 13.125 38.125V19.375C13.125 17.3242 14.7656 15.625 16.875 15.625H43.125ZM44.0625 38.125V19.375C44.0625 18.9062 43.5938 18.4375 43.125 18.4375H16.875C16.3477 18.4375 15.9375 18.9062 15.9375 19.375V38.125C15.9375 38.6523 16.3477 39.0625 16.875 39.0625H43.125C43.5938 39.0625 44.0625 38.6523 44.0625 38.125Z" fill="#0BBBEF"/>
<g filter="url(#filter0_d_1026_2162)">
<circle cx="50.5" cy="47.5" r="16.5" fill="white"/>
</g>
<path d="M57.4688 45.7188C59.2188 46.25 60.5 47.8438 60.5 49.75C60.5 52.125 58.5938 54 56.25 54H45C42.5 54 40.5 52 40.5 49.5C40.5 47.5625 41.75 45.9062 43.5 45.2812C43.4688 42.375 45.8125 40 48.75 40C50.4688 40 52 40.875 52.9688 42.1875C53.2812 42.0938 53.625 42 54 42C55.9062 42 57.5 43.5938 57.5 45.5C57.5 45.5938 57.4688 45.6562 57.4688 45.7188ZM56.25 52.5C57.75 52.5 59 51.2812 59 49.75C59 48.5625 58.1875 47.5 57.0312 47.1562L55.9062 46.8125L55.9688 45.625C56.0312 44.4062 54.9375 43.1562 53.4062 43.625L52.375 43.9375L51.75 43.0625C51.0312 42.0938 49.9375 41.5 48.75 41.5C46.6875 41.5 45.0312 43.1562 45 45.1875C45 45.3125 45 45.125 45 46.3438L44 46.7188C42.7812 47.125 42 48.25 42 49.5C42 51.1562 43.3438 52.5 45 52.5H56.25ZM51 44.4688L53.75 47.25C54.0625 47.5312 54.0625 48 53.75 48.2812C53.625 48.4375 53.4375 48.5 53.25 48.5C53.0312 48.5 52.8438 48.4375 52.7188 48.2812L51.25 46.8125V50.75C51.25 51.1875 50.9062 51.5 50.5 51.5C50.0625 51.5 49.75 51.1875 49.75 50.75V46.8125L48.25 48.2812C47.9688 48.5938 47.5 48.5938 47.2188 48.2812C46.9062 48 46.9062 47.5312 47.2188 47.2188L49.9688 44.4688C50.0312 44.4062 50.0938 44.375 50.1562 44.3125C50.3438 44.25 50.5625 44.25 50.75 44.3125C50.8438 44.375 50.9062 44.4062 51 44.4688Z" fill="#001A7B"/>
<defs>
<filter id="filter0_d_1026_2162" x="22.054" y="21.1081" width="61" height="61" filterUnits="userSpaceOnUse" color-interpolation-filters="sRGB">
<feFlood flood-opacity="0" result="BackgroundImageFix"/>
<feColorMatrix in="SourceAlpha" type="matrix" values="0 0 0 0 0 0 0 0 0 0 0 0 0 0 0 0 0 0 127 0" result="hardAlpha"/>
<feOffset dx="2.05405" dy="4.1081"/>
<feGaussianBlur stdDeviation="7"/>
<feComposite in2="hardAlpha" operator="out"/>
<feColorMatrix type="matrix" values="0 0 0 0 0 0 0 0 0 0 0 0 0 0 0 0 0 0 0.16 0"/>
<feBlend mode="normal" in2="BackgroundImageFix" result="effect1_dropShadow_1026_2162"/>
<feBlend mode="normal" in="SourceGraphic" in2="effect1_dropShadow_1026_2162" result="shape"/>
</filter>
</defs>
</svg>
